<svg xmlns="http://www.w3.org/2000/svg" viewBox="0 0 960 540" fill="none">
  <defs>
    <linearGradient id="bg" x1="112" y1="44" x2="866" y2="510" gradientUnits="userSpaceOnUse">
      <stop stop-color="#0E2748"/>
      <stop offset=".48" stop-color="#194B84"/>
      <stop offset="1" stop-color="#102647"/>
    </linearGradient>
  </defs>
  <rect width="960" height="540" rx="40" fill="url(#bg)"/>
  <g>
    <rect x="164" y="140" width="178" height="220" rx="28" fill="#6D46FF"/>
    <rect x="392" y="102" width="178" height="258" rx="28" fill="#4E9BFF"/>
    <rect x="620" y="162" width="178" height="198" rx="28" fill="#8B5CF6"/>
    <rect x="196" y="174" width="114" height="88" rx="18" fill="#0B1738"/>
    <rect x="424" y="136" width="114" height="88" rx="18" fill="#0B1738"/>
    <rect x="652" y="194" width="114" height="88" rx="18" fill="#0B1738"/>
    <rect x="224" y="286" width="58" height="40" rx="16" fill="#A3FF2E"/>
    <rect x="452" y="248" width="58" height="40" rx="16" fill="#FFD84D"/>
    <rect x="680" y="306" width="58" height="40" rx="16" fill="#FF7D4D"/>
  </g>
  <g fill="#FFD84D">
    <circle cx="190" cy="94" r="22"/>
    <circle cx="248" cy="74" r="18"/>
    <circle cx="290" cy="108" r="14"/>
    <circle cx="746" cy="92" r="24"/>
  </g>
  <path d="M144 424h672" stroke="#C6E1FF" stroke-opacity=".45" stroke-width="4"/>
  <text x="74" y="110" fill="#FFFFFF" font-size="52" font-family="Arial, sans-serif" font-weight="900" letter-spacing="-2">ARCADE</text>
  <text x="74" y="162" fill="#A7FF35" font-size="52" font-family="Arial, sans-serif" font-weight="900" letter-spacing="-2">TYCOON</text>
</svg>
