<svg xmlns="http://www.w3.org/2000/svg" viewBox="0 0 960 540" fill="none">
  <defs>
    <linearGradient id="bg" x1="112" y1="44" x2="866" y2="510" gradientUnits="userSpaceOnUse">
      <stop stop-color="#0E2748"/>
      <stop offset=".48" stop-color="#194B84"/>
      <stop offset="1" stop-color="#102647"/>
    </linearGradient>
    <linearGradient id="floor" x1="478" y1="238" x2="478" y2="496" gradientUnits="userSpaceOnUse">
      <stop stop-color="#18325B"/>
      <stop offset="1" stop-color="#0B1736"/>
    </linearGradient>
  </defs>
  <rect width="960" height="540" rx="40" fill="url(#bg)"/>
  <path d="M114 350 478 210l368 140-368 152L114 350Z" fill="url(#floor)"/>
  <g stroke="#274A80" stroke-width="4" opacity=".5">
    <path d="M478 210v292"/>
    <path d="M210 386 580 250"/>
    <path d="M320 432 688 290"/>
    <path d="M142 322 510 462"/>
    <path d="M252 278 620 418"/>
  </g>
  <g>
    <path d="M212 238h126v168H212z" fill="#6A49FF"/>
    <path d="M244 258h62v56H244z" fill="#0C1738"/>
    <rect x="238" y="334" width="74" height="18" rx="9" fill="#A8FF33"/>
  </g>
  <g>
    <path d="M418 182h140v204H418z" fill="#4C9FFF"/>
    <path d="M454 208h70v74H454z" fill="#0C1738"/>
    <rect x="446" y="314" width="82" height="22" rx="11" fill="#FFD84D"/>
  </g>
  <g>
    <path d="M646 250h124v154H646z" fill="#8D5CFF"/>
    <path d="M676 274h64v52H676z" fill="#0C1738"/>
    <rect x="670" y="344" width="74" height="18" rx="9" fill="#FF8B51"/>
  </g>
  <g>
    <circle cx="176" cy="112" r="24" fill="#FFD84D"/>
    <circle cx="238" cy="88" r="18" fill="#FFD84D"/>
    <circle cx="300" cy="116" r="14" fill="#FFD84D"/>
    <circle cx="760" cy="102" r="24" fill="#FFD84D"/>
    <circle cx="804" cy="138" r="16" fill="#FFD84D"/>
  </g>
  <path d="M496 120c26 6 50 26 62 48" stroke="#FFFFFF" stroke-opacity=".55" stroke-width="10" stroke-linecap="round"/>
</svg>
