<svg xmlns="http://www.w3.org/2000/svg" viewBox="0 0 960 540" fill="none">
  <defs>
    <linearGradient id="bg" x1="98" y1="52" x2="854" y2="488" gradientUnits="userSpaceOnUse">
      <stop stop-color="#0C2445"/>
      <stop offset=".52" stop-color="#163B72"/>
      <stop offset="1" stop-color="#09152B"/>
    </linearGradient>
    <radialGradient id="vaultGlow" cx="0" cy="0" r="1" gradientTransform="translate(478 270) rotate(90) scale(166 226)" gradientUnits="userSpaceOnUse">
      <stop stop-color="#A8FF30" stop-opacity=".24"/>
      <stop offset="1" stop-color="#A8FF30" stop-opacity="0"/>
    </radialGradient>
  </defs>
  <rect width="960" height="540" rx="40" fill="url(#bg)"/>
  <rect width="960" height="540" rx="40" fill="url(#vaultGlow)"/>
  <rect x="196" y="86" width="568" height="368" rx="36" fill="#12203D" stroke="#FFFFFF" stroke-opacity=".08" stroke-width="8"/>
  <g>
    <rect x="290" y="122" width="92" height="48" rx="18" fill="#1E335F"/>
    <rect x="396" y="122" width="92" height="48" rx="18" fill="#1E335F"/>
    <rect x="502" y="122" width="92" height="48" rx="18" fill="#1E335F"/>
    <rect x="608" y="122" width="92" height="48" rx="18" fill="#1E335F"/>
    <text x="317" y="155" fill="#66D7FF" font-size="26" font-family="Arial, sans-serif" font-weight="800">2</text>
    <text x="423" y="155" fill="#FFD850" font-size="26" font-family="Arial, sans-serif" font-weight="800">5</text>
    <text x="529" y="155" fill="#FF8F55" font-size="26" font-family="Arial, sans-serif" font-weight="800">9</text>
    <text x="635" y="155" fill="#A8FF30" font-size="26" font-family="Arial, sans-serif" font-weight="800">4</text>
  </g>
  <circle cx="480" cy="282" r="126" fill="#0F1B35" stroke="#A8FF30" stroke-width="10"/>
  <circle cx="480" cy="282" r="86" fill="#16274B" stroke="#FFFFFF" stroke-opacity=".14" stroke-width="6"/>
  <circle cx="480" cy="282" r="20" fill="#A8FF30"/>
  <path d="M480 208v74l48 34" stroke="#A8FF30" stroke-width="10" stroke-linecap="round"/>
  <g stroke="#94AEDA" stroke-width="8" stroke-linecap="round">
    <path d="M480 176v26"/>
    <path d="M480 362v26"/>
    <path d="M572 282h26"/>
    <path d="M362 282h26"/>
  </g>
  <g fill="#1D315C">
    <rect x="302" y="348" width="62" height="52" rx="16"/>
    <rect x="376" y="348" width="62" height="52" rx="16"/>
    <rect x="450" y="348" width="62" height="52" rx="16"/>
    <rect x="524" y="348" width="62" height="52" rx="16"/>
    <rect x="598" y="348" width="62" height="52" rx="16"/>
  </g>
  <g fill="#DDEBFF">
    <circle cx="333" cy="374" r="8"/>
    <circle cx="407" cy="374" r="8"/>
    <circle cx="481" cy="374" r="8"/>
    <circle cx="555" cy="374" r="8"/>
    <circle cx="629" cy="374" r="8"/>
  </g>
</svg>
