<svg xmlns="http://www.w3.org/2000/svg" viewBox="0 0 960 540" fill="none">
  <defs>
    <linearGradient id="bg" x1="116" y1="44" x2="850" y2="512" gradientUnits="userSpaceOnUse">
      <stop stop-color="#1B1542"/>
      <stop offset=".58" stop-color="#2C1E68"/>
      <stop offset="1" stop-color="#101933"/>
    </linearGradient>
  </defs>
  <rect width="960" height="540" rx="40" fill="url(#bg)"/>
  <path d="M360 540 448 170" stroke="#6EE7FF" stroke-width="8" stroke-linecap="round" opacity=".6"/>
  <path d="M480 540 520 170" stroke="#93C5FD" stroke-width="8" stroke-linecap="round" opacity=".7"/>
  <path d="M600 540 594 170" stroke="#B794FF" stroke-width="8" stroke-linecap="round" opacity=".65"/>
  <rect x="288" y="150" width="386" height="220" rx="28" fill="#121937" stroke="#FFFFFF" stroke-opacity=".08" stroke-width="8"/>
  <circle cx="480" cy="260" r="58" fill="#FF4A4A"/>
  <circle cx="456" cy="236" r="18" fill="#FFD7D7"/>
  <g fill="#8C3BFF">
    <rect x="322" y="182" width="40" height="146" rx="16"/>
    <rect x="386" y="172" width="36" height="172" rx="16"/>
    <rect x="550" y="172" width="36" height="172" rx="16"/>
    <rect x="606" y="182" width="40" height="146" rx="16"/>
  </g>
  <g fill="#56D9FF">
    <circle cx="714" cy="120" r="26"/>
    <circle cx="794" cy="182" r="18"/>
    <circle cx="826" cy="102" r="12"/>
  </g>
  <text x="74" y="116" fill="#FFFFFF" font-size="50" font-family="Arial, sans-serif" font-weight="900" letter-spacing="-2">DONT STOP</text>
  <text x="74" y="168" fill="#FF7D4D" font-size="50" font-family="Arial, sans-serif" font-weight="900" letter-spacing="-2">BALL</text>
</svg>
