<svg xmlns="http://www.w3.org/2000/svg" viewBox="0 0 960 540" fill="none">
  <defs>
    <linearGradient id="bg" x1="120" y1="44" x2="842" y2="506" gradientUnits="userSpaceOnUse">
      <stop stop-color="#18133E"/>
      <stop offset=".56" stop-color="#291C66"/>
      <stop offset="1" stop-color="#0E1530"/>
    </linearGradient>
    <radialGradient id="warnGlow" cx="0" cy="0" r="1" gradientTransform="translate(482 286) rotate(90) scale(154 222)" gradientUnits="userSpaceOnUse">
      <stop stop-color="#FF6558" stop-opacity=".38"/>
      <stop offset="1" stop-color="#FF6558" stop-opacity="0"/>
    </radialGradient>
  </defs>
  <rect width="960" height="540" rx="40" fill="url(#bg)"/>
  <rect width="960" height="540" rx="40" fill="url(#warnGlow)"/>
  <path d="M310 540 416 154" stroke="#57D9FF" stroke-opacity=".6" stroke-width="10" stroke-linecap="round"/>
  <path d="M478 540 492 154" stroke="#9D7CFF" stroke-opacity=".7" stroke-width="10" stroke-linecap="round"/>
  <path d="M646 540 566 154" stroke="#57D9FF" stroke-opacity=".56" stroke-width="10" stroke-linecap="round"/>
  <path d="M256 196h448l-40 238H296l-40-238Z" fill="#111833" stroke="#FFFFFF" stroke-opacity=".08" stroke-width="8"/>
  <g fill="#8B47FF">
    <rect x="354" y="202" width="28" height="174" rx="14"/>
    <rect x="430" y="184" width="28" height="212" rx="14"/>
    <rect x="506" y="176" width="28" height="228" rx="14"/>
    <rect x="582" y="202" width="28" height="174" rx="14"/>
  </g>
  <g fill="#55D8FF">
    <rect x="396" y="192" width="14" height="198" rx="7"/>
    <rect x="548" y="192" width="14" height="198" rx="7"/>
  </g>
  <g>
    <path d="M350 370h264" stroke="#FF6C56" stroke-width="16" stroke-linecap="round"/>
    <path d="M374 344h216" stroke="#FF9D66" stroke-width="12" stroke-linecap="round" stroke-dasharray="18 18"/>
  </g>
  <circle cx="478" cy="292" r="64" fill="#FF4F4F"/>
  <circle cx="452" cy="266" r="20" fill="#FFD5D5"/>
  <circle cx="478" cy="292" r="78" stroke="#FFFFFF" stroke-opacity=".12" stroke-width="8"/>
  <g fill="#5CE1FF">
    <circle cx="720" cy="120" r="24"/>
    <circle cx="792" cy="168" r="16"/>
    <circle cx="828" cy="96" r="10"/>
  </g>
</svg>
