<svg xmlns="http://www.w3.org/2000/svg" viewBox="0 0 960 540" fill="none">
  <defs>
    <linearGradient id="bg" x1="108" y1="40" x2="806" y2="512" gradientUnits="userSpaceOnUse">
      <stop stop-color="#16125A"/>
      <stop offset=".5" stop-color="#241A78"/>
      <stop offset="1" stop-color="#090D29"/>
    </linearGradient>
    <radialGradient id="pinkGlow" cx="0" cy="0" r="1" gradientTransform="translate(556 388) rotate(90) scale(172 286)" gradientUnits="userSpaceOnUse">
      <stop stop-color="#FF44E6" stop-opacity=".74"/>
      <stop offset="1" stop-color="#FF44E6" stop-opacity="0"/>
    </radialGradient>
    <radialGradient id="blueGlow" cx="0" cy="0" r="1" gradientTransform="translate(612 328) rotate(90) scale(218 308)" gradientUnits="userSpaceOnUse">
      <stop stop-color="#48D8FF" stop-opacity=".7"/>
      <stop offset="1" stop-color="#48D8FF" stop-opacity="0"/>
    </radialGradient>
    <linearGradient id="roadBlue" x1="316" y1="540" x2="492" y2="282" gradientUnits="userSpaceOnUse">
      <stop stop-color="#2AE0FF"/>
      <stop offset="1" stop-color="#87F5FF" stop-opacity=".2"/>
    </linearGradient>
    <linearGradient id="roadPink" x1="600" y1="540" x2="526" y2="290" gradientUnits="userSpaceOnUse">
      <stop stop-color="#FF52E1"/>
      <stop offset="1" stop-color="#FF52E1" stop-opacity=".16"/>
    </linearGradient>
  </defs>
  <rect width="960" height="540" rx="40" fill="url(#bg)"/>
  <rect width="960" height="540" rx="40" fill="url(#pinkGlow)"/>
  <rect width="960" height="540" rx="40" fill="url(#blueGlow)"/>
  <g opacity=".8">
    <path d="M422 540 484 270" stroke="url(#roadBlue)" stroke-width="14" stroke-linecap="round"/>
    <path d="M532 540 548 270" stroke="url(#roadPink)" stroke-width="14" stroke-linecap="round"/>
    <path d="M322 540 430 270" stroke="#2FC7FF" stroke-opacity=".55" stroke-width="8" stroke-linecap="round"/>
    <path d="M628 540 604 270" stroke="#FF46DA" stroke-opacity=".5" stroke-width="8" stroke-linecap="round"/>
    <path d="M254 540 390 270" stroke="#8A7BFF" stroke-opacity=".32" stroke-width="6" stroke-linecap="round"/>
    <path d="M708 540 646 270" stroke="#39D9FF" stroke-opacity=".32" stroke-width="6" stroke-linecap="round"/>
  </g>
  <g fill="#16224B">
    <rect x="748" y="86" width="98" height="208" rx="12"/>
    <rect x="658" y="112" width="74" height="182" rx="12"/>
    <rect x="122" y="118" width="72" height="176" rx="12"/>
    <rect x="208" y="82" width="88" height="212" rx="12"/>
    <rect x="310" y="52" width="104" height="242" rx="12"/>
  </g>
  <g>
    <rect x="766" y="104" width="46" height="14" rx="7" fill="#FF56E3"/>
    <rect x="676" y="144" width="30" height="88" rx="10" fill="#46D8FF"/>
    <rect x="138" y="140" width="34" height="12" rx="6" fill="#46D8FF"/>
    <rect x="232" y="112" width="42" height="14" rx="7" fill="#FF56E3"/>
    <rect x="336" y="88" width="48" height="14" rx="7" fill="#95FF34"/>
  </g>
  <path d="M660 440c46 0 84-44 88-102 3-42-13-80-42-98-30-19-71-13-106 18-34 31-55 77-52 118 4 38 29 64 70 64h42Z" fill="#0E1433" stroke="#7DEBFF" stroke-width="8"/>
  <circle cx="658" cy="222" r="38" fill="#111835" stroke="#B6FF39" stroke-width="8"/>
  <path d="M644 208c0-8 6-14 14-14h24c8 0 14 6 14 14v20h-52v-20Z" fill="#B6FF39"/>
  <path d="M590 272c22-16 54-19 82-7l38 18-20 24-34-10-18 46h-40l16-44-42 46h-34l24-48-22-18 50-7Z" fill="#0A112B" stroke="#A7FF31" stroke-width="6"/>
  <path d="m638 446 20-88 76 42-44 34-52 12Z" fill="#0D1432" stroke="#46D8FF" stroke-width="6"/>
  <path d="m582 430 28-34 24 16-18 36-34-18Z" fill="#FF53DF"/>
  <path d="M600 194c8-8 20-8 28 0" stroke="#B6FF39" stroke-width="6" stroke-linecap="round"/>
</svg>
