<svg xmlns="http://www.w3.org/2000/svg" viewBox="0 0 960 540" fill="none">
  <defs>
    <linearGradient id="bg" x1="110" y1="44" x2="842" y2="504" gradientUnits="userSpaceOnUse">
      <stop stop-color="#102552"/>
      <stop offset=".5" stop-color="#1A4A8E"/>
      <stop offset="1" stop-color="#0C1732"/>
    </linearGradient>
  </defs>
  <rect width="960" height="540" rx="40" fill="url(#bg)"/>
  <g opacity=".7" stroke="#A7D8FF" stroke-width="8" stroke-linecap="round">
    <path d="m152 116 54 96"/>
    <path d="m242 86 48 112"/>
    <path d="m332 128 40 88"/>
    <path d="m626 84 48 110"/>
    <path d="m716 116 54 96"/>
    <path d="m804 94 38 82"/>
  </g>
  <circle cx="480" cy="308" r="88" fill="#69C7FF"/>
  <circle cx="448" cy="278" r="28" fill="#E8F7FF"/>
  <path d="m394 392 40-92 104-12-68 118-76-14Z" fill="#7B6BFF" opacity=".6"/>
  <g fill="#FF6A6A">
    <rect x="212" y="352" width="52" height="26" rx="13"/>
    <rect x="302" y="318" width="70" height="28" rx="14"/>
    <rect x="650" y="328" width="62" height="28" rx="14"/>
    <rect x="730" y="362" width="54" height="26" rx="13"/>
  </g>
  <text x="76" y="112" fill="#FFFFFF" font-size="52" font-family="Arial, sans-serif" font-weight="900" letter-spacing="-2">RAINBALL</text>
  <text x="76" y="164" fill="#6FDBFF" font-size="52" font-family="Arial, sans-serif" font-weight="900" letter-spacing="-2">RUSH</text>
</svg>
